# xmcd
#
# Track frame offsets:
# 150
# 20792
# 28867
# 46127
# 58887
# 88203
# 104903
# 127737
# 144466
# 156843
# 170901
# 182533
# 202897
#
# Disc length: 3061 seconds
#
#
# Revision: 0
# Processed by: cddbd v1.5.2PL0 Copyright (c) Steve Scherf et al.
# Submitted via: FreeRIP 2.945 
#
DISCID=bb0bf30d
DTITLE=Sisters and brothers Gospel choir ensemble meets Cheryl Porter - The gospel night
DYEAR=2007
DGENRE=Gospel
TTITLE0=Let's go to church
TTITLE1=Joshua fit the battle ob Jerico
TTITLE2=To him
TTITLE3=Come let's celebrate
TTITLE4=In heaven's eyes
TTITLE5=Listen to the sound of your soul
TTITLE6=Bridge over troubled water
TTITLE7=Hold on
TTITLE8=I will sing praises
TTITLE9=Come to me
TTITLE10=Didn't it rain
TTITLE11=Wade in de water
TTITLE12=Weapons of praier
EXTD=
EXTT0=
EXTT1=
EXTT2=
EXTT3=
EXTT4=
EXTT5=
EXTT6=
EXTT7=
EXTT8=
EXTT9=
EXTT10=
EXTT11=
EXTT12=
PLAYORDER=
